<svg xmlns="http://www.w3.org/2000/svg" width="365" height="70" viewBox="0 0 364.99999 69.999981" id="svg2"><defs id="defs4"><style id="style6">.fil2{fill:#fefefe;fill-rule:nonzero}.fil0{fill:#2b2a29}.fil0,.fil4{fill-rule:nonzero}.fil4{fill:#df302b}.fil3{fill:#91852e}.fil3,.fil1{fill-rule:nonzero}.fil1{fill:#16774d}</style></defs><g id="layer2"><g id="g4468"><g id="g4437"><g id="g4169" clip-rule="evenodd" fill-rule="evenodd" image-rendering="optimizeQuality" shape-rendering="geometricPrecision" text-rendering="geometricPrecision"><g id="_560341221328" fill-rule="nonzero"><path class="fil0" d="M54.568 68.287c0-.94.773-1.707 1.713-1.707.94 0 1.713.768 1.713 1.707a1.714 1.714 0 0 1-3.425 0zm1.713 1.46c.803 0 1.456-.658 1.456-1.46a1.46 1.46 0 0 0-1.455-1.455c-.8 0-1.46.66-1.46 1.455 0 .802.66 1.46 1.46 1.46zm-.647-2.405h.602c.344 0 .733.057.733.584 0 .32-.195.384-.31.44l.333.78h-.36l-.286-.727h-.384v.726h-.327v-1.804zm.327.79h.39c.154 0 .28-.074.28-.234 0-.16-.11-.24-.31-.24h-.36v.475z" id="path11" fill="#2b2a29"/><path class="fil1" d="M0 35C0 15.667 15.667 0 35 0s35 15.667 35 35-15.667 35-35 35S0 54.333 0 35z" id="path13" fill="#16774d"/><path class="fil0" d="M12.012 35C12.012 22.306 22.3 12.012 35 12.012S57.993 22.306 57.993 35C57.993 47.7 47.7 57.988 35 57.988S12.012 47.7 12.012 35z" id="path15" fill="#2b2a29"/><path class="fil2" d="M35 56.298c-11.743 0-21.298-9.555-21.298-21.298 0-11.75 9.555-21.304 21.298-21.304 11.75 0 21.304 9.555 21.304 21.304 0 11.743-9.555 21.298-21.304 21.298z" id="path17" fill="#fefefe"/><path class="fil3" d="M14.825 35c0-11.142 9.033-20.175 20.175-20.175 11.147 0 20.175 9.033 20.175 20.175 0 11.142-9.028 20.175-20.175 20.175-11.142 0-20.175-9.033-20.175-20.175z" id="path19" fill="#91852e"/><path class="fil2" d="M10.345 17.878c-.52.218-.82.47-1.07.905-.562.945-.264 2.074.675 2.624.962.573 2.09.286 2.652-.66a2.1 2.1 0 0 0 .264-.75c.023-.206.017-.332-.023-.64l1.535-.087c.075.48.092.682.046 1.025a3.888 3.888 0 0 1-.516 1.518c-1.036 1.753-3.08 2.234-4.874 1.175-1.788-1.06-2.366-3.134-1.335-4.88a3.94 3.94 0 0 1 .944-1.09c.31-.24.52-.35 1.048-.555l.653 1.415z" id="path21" fill="#fefefe"/><path class="fil2" d="M12.43 12.155c1.45-1.437 3.61-1.41 5.076.07 1.466 1.483 1.472 3.637.023 5.075-1.474 1.454-3.616 1.426-5.088-.058-1.467-1.478-1.484-3.632-.012-5.087zm1.29 3.816c.744.757 1.9.814 2.606.115.693-.682.64-1.84-.103-2.595-.74-.745-1.896-.802-2.584-.12-.705.7-.665 1.85.08 2.6z" id="path23" fill="#fefefe"/><path class="fil2" id="polygon25" fill="#fefefe" d="M20.33 6.484l.727 1.192-1.873 1.14.653 1.065 1.633-.99.72 1.186-1.63.99 1.51 2.487-1.51.922-3.616-5.934z"/><path class="fil2" id="polygon27" fill="#fefefe" d="M25.812 4.268l.492 1.306-2.045.773.446 1.174 1.782-.675.492 1.3-1.787.67 1.025 2.722-1.655.63-2.452-6.502z"/><path class="fil2" id="polygon29" fill="#fefefe" d="M28.905 10.615l-1.134-6.85 4.028-.672.23 1.375-2.28.384.205 1.23 1.977-.325.223 1.37-1.97.326.246 1.495 2.353-.396.23 1.38z"/><path class="fil2" id="polygon31" fill="#fefefe" d="M34.1 9.876l.287-6.943 4.084.172-.056 1.392-2.314-.092-.052 1.25 2.005.085-.057 1.386-2.005-.08-.062 1.506 2.39.103-.06 1.398z"/><path class="fil2" d="M40.087 8.048c.384.78.865 1.25 1.432 1.404.49.126.944-.075 1.053-.48a.526.526 0 0 0-.115-.47c-.143-.144-.303-.26-.767-.568-.607-.39-.8-.55-1.025-.87a1.867 1.867 0 0 1-.27-1.565c.333-1.26 1.634-1.903 3.05-1.53.79.206 1.345.6 1.803 1.27L44.24 6.3c-.355-.532-.71-.847-1.134-.955-.407-.11-.768.057-.86.39a.566.566 0 0 0 .086.452c.103.16.224.24.728.56.515.34.796.568 1.025.866.315.44.4 1.002.246 1.604-.36 1.37-1.63 2.04-3.126 1.644-.945-.245-1.627-.778-2.08-1.62l.963-1.192z" id="path33" fill="#fefefe"/><path class="fil2" id="polygon35" fill="#fefefe" d="M44.268 11.514l3.27-6.135 1.565.835-1.146 2.154L49.91 9.41l1.146-2.154 1.57.836-3.27 6.13-1.565-.83 1.382-2.59-1.96-1.043-1.374 2.59z"/><path class="fil2" d="M57.266 11.772c1.478 1.415 1.506 3.568.07 5.075-1.45 1.507-3.6 1.57-5.077.16-1.496-1.432-1.52-3.58-.075-5.086 1.438-1.5 3.586-1.58 5.08-.148zm-3.78 1.392c-.734.767-.763 1.924-.047 2.612.704.67 1.86.59 2.594-.178.722-.756.75-1.913.052-2.583-.716-.688-1.868-.62-2.6.15z" id="path37" fill="#fefefe"/><path class="fil2" d="M61.047 16.177l1.27 2.056c.19.31.345.59.425.802.395 1.003.03 1.948-1.014 2.59-1.22.756-2.314.475-3.104-.803l-.476-.767-2.085 1.29-.934-1.514 5.917-3.653zm-1.684 3.127l.257.42c.304.49.762.623 1.215.348.44-.275.51-.705.2-1.203l-.27-.436-1.402.87z" id="path39" fill="#fefefe"/><path class="fil2" d="M17.672 56.097c-.086-.555-.264-.893-.625-1.243-.784-.756-1.936-.727-2.686.052-.772.802-.755 1.953.03 2.715.194.184.418.34.664.425.195.074.32.097.624.126l-.27 1.508c-.48-.04-.68-.07-.996-.19a3.99 3.99 0 0 1-1.35-.847c-1.456-1.403-1.45-3.488-.02-4.97 1.433-1.49 3.57-1.57 5.02-.18.35.34.635.734.83 1.164.166.355.223.584.298 1.14l-1.518.303z" id="path41" fill="#fefefe"/><path class="fil2" d="M22.69 56.825c1.764.997 2.314 3.07 1.3 4.87-1.02 1.803-3.076 2.388-4.84 1.39-1.793-1.013-2.343-3.07-1.318-4.88 1.014-1.798 3.065-2.394 4.858-1.38zm-3.305 2.263c-.516.916-.264 2.04.595 2.52.842.48 1.937.12 2.452-.796.516-.905.258-2.028-.584-2.504-.854-.486-1.942-.137-2.463.78z" id="path43" fill="#fefefe"/><path class="fil2" d="M26.465 58.92l1.66.368.454 3.666c.027.332-.007.87-.105 1.467.172-.6.344-1.088.516-1.374l1.954-3.14 1.667.373-.67 6.913-1.677-.367.372-3.133c.006-.218.046-.44.103-.693.057-.264.103-.44.195-.762-.178.55-.378 1.014-.59 1.34l-1.787 2.87-1.02-.23-.418-3.35c-.017-.132-.023-.378-.017-.848 0-.343-.005-.383 0-.63-.01.15-.017.252-.017.32-.034.282-.097.66-.154.912-.018.092-.04.177-.064.24l-1.043 2.985-1.667-.372 2.31-6.554z" id="path45" fill="#fefefe"/><path class="fil2" d="M33.935 60.28l2.4-.12c.36-.018.676-.013.9.016 1.06.137 1.7.91 1.763 2.125.07 1.427-.698 2.24-2.188 2.31l-.9.045.115 2.43-1.753.08-.337-6.886zm1.907 2.96l.487-.022c.572-.03.91-.36.88-.888-.022-.516-.36-.78-.944-.75l-.504.028.08 1.633z" id="path47" fill="#fefefe"/><path class="fil2" d="M40.556 59.597l1.765-.464 4.108 6.05-1.76.463-.715-1.14-2.182.58-.062 1.34-1.747.464.596-7.293zm1.26 4.148l1.444-.378-.974-1.547a2.47 2.47 0 0 1-.183-.332c-.166-.315-.235-.504-.367-.974.115.48.16.676.172 1.02.006.148.006.297 0 .39l-.09 1.82z" id="path49" fill="#fefefe"/><path class="fil2" d="M44.664 58.492l1.546-.877 3.81 1.845c.154.08.618.452 1.162.91-.452-.51-.82-.962-.94-1.18l-1.654-2.92 1.535-.866 3.39 6.004-1.506.847-3.924-1.884c-.13-.057-.315-.21-.67-.492a4.897 4.897 0 0 1-.48-.407l.137.173.28.315c.338.407.48.562.527.648l1.707 3.024-1.53.865-3.39-6.003z" id="path51" fill="#fefefe"/><path class="fil2" d="M51.91 53.71l1.822.68c.23.08.55.287.905.608-.31-.356-.522-.682-.59-.917l-.653-1.826 1.403-1.38 1.192 4.26 2.112 2.16-1.243 1.22-2.12-2.153-4.24-1.27 1.41-1.38z" id="path53" fill="#fefefe"/><path class="fil4" d="M32.13 42.097c-3.55-3.007-6.805-1.208-6.805-1.208-.814.594-.63 1.116 0 1.677l7.05 6.22c.632.562 1.405.643 1.79-.217 0 0 1.534-3.454-2.035-6.473z" id="path55" fill="#df302b"/><path class="fil2" d="M34.736 32.153c-1.185-1.065-2.297-2.068-3.036-3.116-2.022-2.864-1.827-6.273.573-10.128.035-.058.006-.15-.04-.196a.206.206 0 0 0-.137-.063.11.11 0 0 0-.058.02c-3.173 1.826-10.77 7.955-7.813 14.233 1.048 2.23 3.597 3.426 6.3 4.698 4.177 1.965 8.502 4 6.806 10.15-.02.076.03.15.093.18a.16.16 0 0 0 .075.016c.045 0 .097-.023.12-.057 5.585-8.118.893-12.34-2.882-15.737z" id="path57" fill="#fefefe"/><path class="fil2" d="M43.363 27.85c-.23-.148-.487-.308-.78-.486-2.536-1.558-6.78-4.17-5.618-9.88.01-.07-.04-.144-.103-.173a.288.288 0 0 0-.07-.01c-.045 0-.102.022-.125.063-5.22 8.14-1.283 11.84 2.532 15.414 2.296 2.16 4.473 4.194 4.56 7.138.08 2.675-1.634 5.826-5.237 9.64-.046.046-.04.144 0 .195.034.046.092.08.143.08.017 0 .034 0 .046-.01 7.447-3.363 11.388-7.167 11.714-11.297.424-5.322-5.298-9.515-7.063-10.672z" id="path59" fill="#fefefe"/><path class="fil0" d="M31.81 49.51l-7.052-6.227c-.63-.56-1.278-.802-1.77.12 0 0-1.667 3.19 1.747 6.336 3.437 3.16 6.965 1.47 6.965 1.47.934-.48.74-1.145.11-1.7z" id="path61" fill="#2b2a29"/></g></g><path id="path4336" d="M250.477 65.944c-.53-.134-.626-.228-.55-.532.038-.15 1.007-1.63 2.154-3.288 3.016-4.36 4.124-5.99 4.093-6.02-.015-.015-.995-.042-2.178-.06l-2.15-.03-3.292 4.646c-1.81 2.555-3.43 4.748-3.597 4.874-.233.174-.474.228-1.017.23-.82.002-1.13-.19-1.014-.627.038-.142.997-1.307 2.13-2.59 2.662-3.006 5.595-6.515 5.565-6.655-.012-.06-.356-.195-.763-.298-1.27-.323-1.676-.632-1.372-1.048.142-.194.195-.19 1.312.1.64.166 1.282.3 1.426.298.207-.003.502-.328 1.4-1.547.627-.85 1.17-1.62 1.205-1.715.044-.116-.288-.007-1.028.338-3.03 1.412-6.735 2.172-8.08 1.658-.426-.162-.503-.237-.503-.494 0-.166.066-.392.147-.502.14-.193.163-.192.582.02 2.458 1.244 7.412-.19 10.87-3.145.918-.783.983-.6.177.495-.784 1.066-3.36 4.808-3.423 4.975-.043.113.398.143 2.122.143h2.176l.526-.742c4.133-5.825 7.037-8.935 9.403-10.07 1.022-.488 1.81-.662 2.623-.578 2.305.24 2.973 2.29 1.576 4.843-1.91 3.49-6.624 6.194-12.385 7.107l-.862.137-.625 1.01c-.538.87-1.67 2.833-4.38 7.604-.325.576-.718 1.14-.872 1.252-.33.244-.916.333-1.393.212zm9.732-11.28c5.102-.996 9.03-3.564 10.19-6.667.316-.844.304-1.947-.026-2.528-.697-1.225-2.505-1.26-4.216-.083-2.035 1.4-4.68 4.57-7.45 8.923-.49.77-.555.754 1.5.353zm53.614 11.113c-.193-.088-.406-.26-.47-.383-.332-.618.02-2.08.936-3.905.756-1.508 1.748-3.14 4.21-6.93 2.787-4.29 3.047-4.708 3.528-5.663.547-1.088.71-1.662.528-1.88-1.05-1.264-7.458 5.167-11.83 11.87-.75 1.15-1.106.76-.43-.475 2.054-3.745 8.095-10.338 11.19-12.212 1.407-.853 2.51-1.114 2.896-.687.505.56-.095 1.93-3.06 6.994-3 5.12-3.983 6.87-4.764 8.463-1.064 2.167-1.342 3.363-.828 3.56.285.11 1.296-.135 2.018-.488 1.205-.59 3.287-2.354 4.582-3.883l.425-.504-.156-.603c-.74-2.846 1.216-8.326 4.3-12.055 1.545-1.866 3.392-2.854 4.026-2.152 1.108 1.224-1.582 7.23-5.69 12.71-.46.61-1 1.305-1.203 1.545-.204.24-.37.496-.37.57 0 .177.905 1.003 1.204 1.098.336.106.304.393-.043.393-.385 0-.924-.24-1.355-.6l-.36-.305-1.305 1.32c-2.638 2.67-4.992 4.13-6.93 4.3-.486.043-.806.013-1.05-.098zm10.633-8.234c2.456-3.223 5.016-7.67 5.803-10.08.47-1.444.323-2.285-.372-2.114-1.853.455-4.878 4.697-6.17 8.654-.47 1.43-.65 2.586-.59 3.743.054 1.025.157 1.332.358 1.07.067-.088.504-.66.97-1.274zm-238.46 7.38c-3.444-.528-5.975-2.825-6.895-6.258-.19-.705-.24-1.21-.24-2.44-.003-1.88.207-2.806.995-4.384.432-.865.695-1.222 1.472-1.996 1.06-1.06 1.836-1.56 3.107-2.01 2.716-.96 5.908-.542 8.17 1.073l.71.505-.96 1.41c-.53.773-1.017 1.466-1.084 1.54-.092.1-.267.04-.732-.248-.84-.522-1.84-.76-2.884-.687-2.49.174-4.252 1.94-4.41 4.425-.1 1.558.42 2.88 1.54 3.917.814.754 1.605 1.07 2.856 1.144 1.195.07 1.914-.096 2.843-.656.41-.247.783-.407.83-.356.226.25 1.89 2.82 1.89 2.92 0 .21-1.313 1.084-2.152 1.434-1.503.625-3.556.896-5.057.666zm22.353.055c-3.534-.49-5.974-2.314-7.185-5.376-.442-1.118-.575-1.93-.57-3.49.003-1.768.185-2.56.953-4.154.487-1.01.68-1.28 1.518-2.108 1.1-1.088 1.847-1.566 3.147-2.01 2.433-.832 5.122-.634 7.35.54.94.495 2.592 2.093 3.15 3.046 1.344 2.29 1.602 5.268.687 7.933-.453 1.32-.93 2.057-2.06 3.19-1.137 1.14-2.25 1.784-3.733 2.156-.843.212-2.622.36-3.257.272zm2.278-4.317c2.49-.877 3.693-4.104 2.487-6.66-.38-.808-1.347-1.798-2.09-2.145-2.623-1.22-5.574.518-6.082 3.583-.228 1.374.28 3.056 1.234 4.09.51.555 1.545 1.15 2.254 1.3.58.12 1.603.043 2.198-.167zm14.2 4.215c0-.094.473-4.064 1.053-8.824.58-4.758 1.055-8.677 1.055-8.708 0-.03.98-.042 2.175-.025l2.174.03 1.837 5.187c1.01 2.853 1.868 5.187 1.904 5.186.037 0 .892-2.335 1.9-5.187l1.833-5.186 2.19-.03c1.87-.026 2.188-.006 2.188.134 0 .197 1.966 16.58 2.06 17.18l.068.415h-4.334l-.064-.472c-.035-.26-.264-2.466-.51-4.903-.244-2.438-.463-4.45-.486-4.474-.05-.05-.1.08-2.016 5.497l-1.54 4.358-1.316-.03-1.315-.03-1.68-4.738c-.922-2.606-1.696-4.72-1.72-4.696-.042.043-1.123 8.95-1.126 9.295-.002.18-.18.195-2.166.195-1.868 0-2.163-.023-2.163-.17zm27.85-8.718V47.27l4.133.05c3.427.04 4.246.082 4.79.236 1.903.54 3.15 1.86 3.625 3.84.19.788.19 2.658 0 3.44-.444 1.83-1.455 2.946-3.227 3.563-.612.213-1.033.26-2.774.313l-2.053.063-.028 3.134-.03 3.135H152.677v-8.888zm6.692-1.106c1.272-.353 1.89-1.868 1.27-3.102-.36-.71-.974-.993-2.338-1.074l-1.048-.063-.052 2.097c-.028 1.153-.032 2.133-.007 2.18.068.125 1.692.098 2.176-.036zm11.336 8.635c.265-.747 1.67-4.74 3.126-8.875l2.646-7.517h4.66l2.877 8.182c1.582 4.5 2.992 8.494 3.133 8.876l.257.694h-4.62l-.527-1.666-.527-1.666-2.95.03-2.95.03-.503 1.636-.503 1.636h-4.598l.48-1.36zm10.044-5.236c0-.046-1.715-5.575-1.844-5.943-.05-.148-.068-.148-.148 0-.098.18-1.892 5.79-1.892 5.915 0 .042.874.076 1.942.076s1.942-.022 1.942-.05zm14.09-2.282v-8.876l2.248.002 2.247.002 3.492 5.047c1.92 2.775 3.53 5.047 3.58 5.047.046 0 .085-2.272.085-5.05v-5.048H210.93v17.753h-4.411l-3.593-5.17-3.592-5.17-.03 5.17-.028 5.17H194.84V56.17zm29.516 4.994V57.28l-2.673-4.844c-1.47-2.664-2.698-4.91-2.73-4.994-.048-.124.38-.15 2.423-.148l2.48.002.76 1.856c.416 1.02.996 2.356 1.288 2.966l.53 1.11.993-2.053a345.27 345.27 0 0 0 1.42-2.968l.426-.916h4.978l-.53.972c-.29.534-1.518 2.767-2.727 4.962l-2.2 3.992v7.828H224.356v-3.882zm66.275 3.716c-.583-.41-.563-1.378.06-2.746.703-1.55 2.682-4.408 3.95-5.708.664-.68.7-.7 1.254-.7.314 0 .6.05.638.11.037.06-.477.82-1.143 1.69-2.714 3.547-3.742 5.63-3.195 6.464.237.363.463.353 1.095-.048.888-.563 1.75-1.556 4.02-4.63 1.207-1.636 2.294-3.063 2.414-3.17.152-.135.405-.194.83-.194.528 0 .603.027.557.194-.028.107-.57.92-1.205 1.803-1.31 1.83-2.353 3.44-2.227 3.44.047 0 .308-.23.58-.51.634-.653 2.818-2.585 3.824-3.383 1.632-1.294 3.02-2.095 3.634-2.097.167 0 .305.03.305.068 0 .04-.445.536-.99 1.106-1.096 1.146-2.388 3.01-3.15 4.54-.557 1.12-.74 1.69-.74 2.31-.003 1.54 1.15.98 3.557-1.724.418-.47.792-.805.83-.744.084.136-.243.572-1.217 1.623-1.367 1.474-2.774 2.36-3.75 2.363-1.294.003-1.572-.654-.963-2.28.42-1.12 1.923-3.35 3.25-4.814.32-.353.492-.624.415-.65-.276-.092-1.728 1.177-5.53 4.83-2.57 2.473-2.83 2.692-3.19 2.692-.292 0-.434-.07-.57-.277-.1-.152-.153-.35-.118-.44.034-.09-.177.008-.47.218-1.09.785-2.2 1.052-2.753.665zm34.07-.118c-.26-.26-.28-.35-.242-1.033.034-.612.135-.94.552-1.796.628-1.29 1.76-3.013 2.97-4.514 1.183-1.47 1.47-1.692 2.212-1.692.395 0 .572.045.572.144 0 .08-.402.66-.893 1.29-2.61 3.358-3.827 5.584-3.576 6.553.195.75.635.73 1.634-.075.55-.443.68-.62.79-1.052.173-.677.49-1.177 1.1-1.74.56-.516 1.55-1.175 2.133-1.418.327-.136.378-.202.313-.406-.155-.492-.19-1.507-.063-1.888.19-.578.902-1.322 1.576-1.647.826-.4 1.61-.562 2.764-.574.835-.008 1.034.025 1.295.22.17.126.324.31.344.41.04.22-.356.805-.656.965-.178.096-.236.068-.344-.17-.174-.382-.728-.707-1.35-.792-1.49-.204-2.868 1.005-2.89 2.535-.013.85.066.908.94.702.825-.194 1.908-.222 2.217-.056.526.28.006 1.16-.855 1.444-.623.205-1.608.087-2.125-.255l-.44-.292-.554.388c-.985.69-1.67 1.95-1.513 2.788.09.485.615 1 1.113 1.094.73.137 1.684-.025 2.465-.417l.737-.37 2.663-3.55 2.663-3.55.6-.035c.328-.02.645.013.703.07.066.067-.18.49-.662 1.144-.818 1.11-2.45 3.52-2.692 3.98-.08.152.313-.148.876-.667 2.725-2.513 4.654-4.03 6.03-4.742 1.063-.55 1.78-.422.973.175-.947.7-2.854 3.353-3.775 5.252-.68 1.405-.88 2.228-.653 2.702.19.398.418.456.9.227.842-.403 1.804-1.47 4.06-4.5 1.25-1.68 2.4-3.19 2.556-3.36.238-.257.37-.304.863-.304.32 0 .612.048.648.106.036.058-.3.595-.743 1.193-.904 1.214-2.75 3.956-2.75 4.083 0 .045.563-.44 1.25-1.078 2.402-2.235 4.822-4.11 5.988-4.638.52-.236 1.085-.29 1.085-.102 0 .066-.278.373-.617.683-1.35 1.235-3.418 4.402-3.982 6.097-.326.983-.352 1.386-.11 1.73.213.305.386.31.914.028.743-.397 1.213-.91 1.506-1.642.412-1.027 1.2-2.144 2.39-3.383 2.413-2.514 5.19-4.003 7.925-4.25 1.26-.115 1.663.278 1 .97l-.298.31-.197-.325c-.505-.83-2.487-.432-4.43.888-2.25 1.527-4.953 5.083-4.588 6.034.12.313.926.22 1.776-.207 1.02-.51 2.062-1.375 3.538-2.93.672-.708 1.604-1.675 2.072-2.15l.85-.862h.67c.366 0 .693.043.725.094.032.05-.49.688-1.16 1.415-2.096 2.27-2.988 3.755-3.077 5.12-.057.868.05 1.138.452 1.138.523 0 1.836-1.136 3.374-2.918.27-.314.488-.482.532-.412.04.066-.29.55-.738 1.076-2.558 3.013-5.11 3.875-5.283 1.783-.042-.53.084-1.086.48-2.11.146-.38-.205-.19-.96.523-1.358 1.282-2.882 2.24-3.86 2.43-.785.15-1.454-.22-1.454-.81 0-.125-.03-.228-.064-.228s-.372.22-.75.488c-.895.637-1.415.844-2.125.844-.428 0-.663-.064-.886-.24-.282-.222-.3-.286-.26-.918.076-1.2 1.24-3.25 3.107-5.468 2.12-2.523-.105-.764-4.665 3.686-1.54 1.504-2.782 2.63-2.948 2.67-.487.123-.84-.03-.912-.4-.075-.373-.117-.393-.363-.17-.097.086-.468.31-.825.498-.882.464-1.824.486-2.255.055-.26-.26-.282-.348-.23-.917.108-1.19 1.238-3.166 3.077-5.38.5-.6.88-1.12.845-1.154-.18-.18-2.372 1.752-5.824 5.13-1.37 1.342-2.43 2.292-2.604 2.336-.444.112-.836-.028-.91-.325l-.065-.26-.91.396c-.784.34-1.05.4-1.978.44-.97.04-1.132.02-1.697-.24-.53-.243-.657-.36-.846-.787l-.223-.5-.63.512c-1.35 1.1-2.723 1.456-3.317.862zm11.03-5.192c.184-.186.183-.204-.022-.355-.118-.088-.397-.16-.62-.16-.524 0-1.66.23-1.66.334 0 .045.16.165.36.266.482.246 1.668.194 1.943-.085zm-79.11 5.04c-.34-.303-.363-.366-.353-1.025.035-2.332 3.106-6.03 6.296-7.58.56-.273 1.41-.597 1.894-.72.84-.215 2.29-.3 2.664-.157.26.1.215.524-.082.803l-.26.242-.202-.225c-.494-.546-1.626-.502-2.87.112-2.508 1.235-5.508 4.88-5.508 6.692 0 .832.78 1.23 1.8.922.745-.226 2.012-1.147 1.908-1.387-.246-.566-.308-1.262-.17-1.93.423-2.07 2.085-3.876 3.718-4.045.514-.053.627-.028.842.187.208.207.237.322.176.707-.17 1.088-1.175 2.713-2.602 4.207-.782.818-.814.87-.613 1.022.304.23.87.204 1.4-.067.798-.408 1.62-1.306 3.443-3.76.974-1.313 1.85-2.45 1.947-2.525.19-.15 1.308-.194 1.393-.055.03.046-.28.532-.685 1.08-.943 1.278-2.9 4.202-2.848 4.255.022.022.58-.43 1.24-1.007a117.67 117.67 0 0 1 2.94-2.445c1.824-1.468 2.396-1.774 2.853-1.53.236.127.228.146-.36.797-.333.366-1.02 1.275-1.527 2.02-.852 1.247-.888 1.32-.467.963 3.758-3.202 5.77-4.602 6.813-4.742.424-.056.454-.043.39.163-.04.124-.458.618-.93 1.1-2.397 2.446-4.393 6.328-3.753 7.304.215.33.392.348.876.098.705-.364 1.3-.96 1.425-1.424a4.67 4.67 0 0 1 .284-.763c.408-.79 1.757-1.922 2.883-2.42.43-.19.49-.256.424-.462-.174-.54-.188-1.582-.028-1.963.5-1.195 1.694-1.896 3.59-2.112 1.06-.12 1.858-.003 2.182.32.2.202.21.263.083.57-.078.19-.28.442-.45.563-.36.257-.44.27-.44.073 0-.232-.592-.736-1.006-.855-1.597-.457-3.24.785-3.258 2.466-.01.85.072.91.945.704 1.89-.445 2.97-.007 2.155.873-.715.772-2.375.833-3.167.117-.16-.145-.247-.115-.796.28-.34.242-.774.676-.964.963-1.518 2.29.432 3.766 3.195 2.417.678-.33 1.058-.628 1.927-1.507.797-.807 1.08-1.036 1.08-.87 0 .313-2.234 2.52-3.01 2.974-1.05.612-2.026.902-3.047.904-1.372.005-2.097-.32-2.438-1.093l-.187-.426-.733.556c-.935.708-1.55.968-2.284.968-.432 0-.666-.063-.89-.24-.283-.222-.3-.286-.26-.918.076-1.215 1.17-3.152 3.053-5.403.515-.615.91-1.144.878-1.176-.347-.347-5.338 4.134-6.762 6.072-.846 1.15-.793 1.11-1.395 1.11-.63 0-.897-.08-.897-.268 0-.072.287-.507.638-.966.937-1.224 2.96-4.307 2.88-4.387-.1-.1-1.78 1.433-4.252 3.872-2.082 2.055-2.13 2.094-2.55 2.06-.323-.027-.464-.105-.587-.327-.152-.273-.142-.317.174-.72.185-.238.425-.568.532-.735l.196-.305-.536.237c-.586.26-1.517.315-1.895.113-.198-.106-.36-.036-1.158.5-1.472.99-2.785 1.473-4.006 1.477-.425 0-.594-.06-.887-.323zm7.37-4.59c.675-.992 1.22-2.214 1.178-2.647-.03-.31-.084-.375-.344-.405-.416-.048-.888.464-1.38 1.496-.382.802-.775 2.558-.647 2.892.072.188.413-.194 1.192-1.335zm20.48-.45c.182-.186.18-.204-.024-.355-.12-.088-.397-.16-.62-.16-.524 0-1.66.23-1.66.334 0 .045.16.165.36.266.482.246 1.667.194 1.943-.085zm12.11-5.72c-1.13-1.132.752-3.27 2.212-2.515.895.463.675 1.953-.38 2.57-.67.394-1.404.37-1.83-.056zm34.252.068c-.54-.54-.514-1.368.065-2.028.456-.52.858-.713 1.48-.713.418 0 .572.06.837.324s.324.418.324.837c0 1.03-.69 1.734-1.778 1.813-.578.04-.678.016-.928-.234zM92.317 38.46c-6.627-.96-11.6-5.676-13.09-12.417-.36-1.626-.506-3.894-.354-5.54.166-1.804.37-2.798.918-4.445 1.836-5.53 6.266-9.38 12.142-10.56 1.546-.31 4.912-.282 6.58.053 1.417.286 2.872.748 4.05 1.287.727.334 2.762 1.638 3.383 2.17l.26.22-2.01 2.94-2.01 2.938-.782-.506c-1.636-1.06-3.356-1.59-5.147-1.592-4.217-.003-7.484 2.365-8.728 6.327-.228.725-.26 1.047-.258 2.603.003 2.012.125 2.624.822 4.105 1.07 2.27 3.025 3.913 5.507 4.625 1.154.33 3.688.36 4.82.058.968-.26 2.35-.94 3.16-1.555.366-.276.67-.494.676-.483.006.01.894 1.328 1.974 2.928l1.963 2.91-.974.775c-3.25 2.584-8.315 3.825-12.903 3.16zm30.272.015c-1.982-.284-3.635-.815-5.46-1.752-3.566-1.83-6.425-5.248-7.655-9.152-.645-2.046-.78-3.004-.786-5.577-.005-2.053.03-2.56.246-3.63 1.317-6.517 5.9-11.34 12.106-12.743 4.823-1.09 9.788-.21 13.64 2.417 1.256.856 3.165 2.81 4.047 4.143 4.448 6.72 3.604 16.254-1.93 21.787-2.205 2.206-4.928 3.656-8.145 4.336-1.452.307-4.518.394-6.066.172zm4.382-7.898c2.773-.693 5.102-3.067 5.977-6.095.216-.75.254-1.132.252-2.6-.002-2-.133-2.615-.885-4.16-1.918-3.943-6.254-5.7-10.155-4.114-3.483 1.415-5.68 5.372-5.208 9.383.62 5.292 5.232 8.783 10.018 7.587zm20.047-7.974V6.57H165.326V12.895H155.23v5.88h8.765v6.436h-8.766v6.538c0 3.596-.03 6.617-.068 6.713-.06.157-.525.177-4.105.177h-4.038zm23.743 0V6.57h18.308V12.895h-10.06l-.074 2.015a111.7 111.7 0 0 0-.073 2.94v.925h8.877v6.436h-8.878v13.427h-8.1zm23.745 0V6.57H213.37v6.323l-5.353.028-5.353.03-.03 2.913-.03 2.912h9.325v6.436h-9.322v6.991h11.096v6.437h-19.196zm24.3 0V6.57h18.863V12.895H227.02v5.88h9.208v6.436h-9.209v6.991h10.984v1.97c0 1.084.033 2.532.072 3.22l.072 1.247h-19.34V22.603zm32.36 15.912c-1.89-.276-4.167-1.158-5.776-2.237-.937-.63-2.158-1.65-2.167-1.812-.004-.066.5-1.44 1.116-3.05l1.226-3.2.103-.27.52.5c2.158 2.062 4.317 3.238 6.504 3.544 1.68.235 3.278-.197 4.265-1.154.624-.605.916-1.188.987-1.967.074-.814-.11-1.354-.662-1.954-.55-.598-1.287-.89-4.708-1.873-3.556-1.022-4.223-1.29-5.544-2.227-2.278-1.614-3.592-4.266-3.592-7.248 0-5.995 5.152-10.44 12.098-10.44 2.327 0 4.075.374 5.99 1.284 1.168.555 2.773 1.583 2.773 1.777 0 .116-2.708 5.786-2.816 5.894-.027.027-.44-.223-.92-.557-1.856-1.295-3.482-1.9-5.084-1.893-2.14.01-3.607 1.147-3.607 2.797 0 .715.193 1.193.71 1.765.53.587 1.282.906 3.72 1.58 2.56.706 3.492 1.018 4.627 1.55 2.735 1.28 4.23 3.166 4.886 6.158.222 1.015.223 3.29.003 4.388-.714 3.54-3.047 6.338-6.44 7.72-1.104.452-2.264.763-3.453.928-.987.138-3.81.135-4.76-.004zm20.345-15.912V6.57h8.1V17.752l5.076.048c2.79.027 5.113.03 5.16.006.044-.023.082-2.56.082-5.64V6.57h8.211v32.067h-8.211V25.1h-10.32v13.538h-8.1V22.603zm46.27 15.922c-5.51-.756-9.96-3.843-12.363-8.575-1.345-2.647-1.934-5.535-1.803-8.844.078-1.964.32-3.32.9-5.06 1.59-4.748 5.29-8.452 10.012-10.022 4.188-1.393 9.035-1.106 12.96.767 3.08 1.472 5.912 4.333 7.375 7.456 2.27 4.846 2.206 10.91-.17 15.64-2.218 4.42-6.09 7.36-11.088 8.418-1.26.266-4.575.392-5.825.22zm4.304-7.998c2.45-.648 4.57-2.627 5.52-5.15.43-1.146.605-2.166.604-3.53-.003-6.017-5.296-10.18-10.67-8.394-4.375 1.455-6.758 6.73-5.185 11.477 1.433 4.32 5.57 6.7 9.732 5.597zm19.884-7.924V6.57h6.797c4.274 0 7.167.046 7.795.123 4.38.537 7.193 3.064 8.182 7.347.32 1.392.345 4.447.046 5.843-.93 4.352-3.773 6.785-8.546 7.318-.583.066-2.186.12-3.56.12h-2.502v11.316h-8.211V22.603zm12.483-2.164c.466-.18.85-.444 1.286-.88.81-.81 1.047-1.46 1.035-2.837-.01-1.274-.286-1.96-1.07-2.665-.81-.726-1.59-.937-3.776-1.02l-1.748-.067V20.8l1.803-.052c1.543-.044 1.9-.09 2.468-.31z" fill="#2b2a29"/></g></g></g></svg>